<svg xmlns="http://www.w3.org/2000/svg" viewBox="0 0 60 40" role="img" aria-label="United States">
  <rect width="60" height="40" fill="#b22234"/>
  <path fill="#fff" d="M0 3.08h60v3.08H0zm0 6.15h60v3.08H0zm0 6.16h60v3.07H0zm0 6.15h60v3.08H0zm0 6.16h60v3.07H0zm0 6.15h60v3.08H0z"/>
  <rect width="24" height="21.54" fill="#3c3b6e"/>
  <g fill="#fff">
    <circle cx="2.4" cy="2.15" r="0.7"/>
    <circle cx="6" cy="2.15" r="0.7"/>
    <circle cx="9.6" cy="2.15" r="0.7"/>
    <circle cx="13.2" cy="2.15" r="0.7"/>
    <circle cx="16.8" cy="2.15" r="0.7"/>
    <circle cx="20.4" cy="2.15" r="0.7"/>
    <circle cx="4.2" cy="4.3" r="0.7"/>
    <circle cx="7.8" cy="4.3" r="0.7"/>
    <circle cx="11.4" cy="4.3" r="0.7"/>
    <circle cx="15" cy="4.3" r="0.7"/>
    <circle cx="18.6" cy="4.3" r="0.7"/>
    <circle cx="2.4" cy="6.45" r="0.7"/>
    <circle cx="6" cy="6.45" r="0.7"/>
    <circle cx="9.6" cy="6.45" r="0.7"/>
    <circle cx="13.2" cy="6.45" r="0.7"/>
    <circle cx="16.8" cy="6.45" r="0.7"/>
    <circle cx="20.4" cy="6.45" r="0.7"/>
    <circle cx="4.2" cy="8.6" r="0.7"/>
    <circle cx="7.8" cy="8.6" r="0.7"/>
    <circle cx="11.4" cy="8.6" r="0.7"/>
    <circle cx="15" cy="8.6" r="0.7"/>
    <circle cx="18.6" cy="8.6" r="0.7"/>
    <circle cx="2.4" cy="10.75" r="0.7"/>
    <circle cx="6" cy="10.75" r="0.7"/>
    <circle cx="9.6" cy="10.75" r="0.7"/>
    <circle cx="13.2" cy="10.75" r="0.7"/>
    <circle cx="16.8" cy="10.75" r="0.7"/>
    <circle cx="20.4" cy="10.75" r="0.7"/>
    <circle cx="4.2" cy="12.9" r="0.7"/>
    <circle cx="7.8" cy="12.9" r="0.7"/>
    <circle cx="11.4" cy="12.9" r="0.7"/>
    <circle cx="15" cy="12.9" r="0.7"/>
    <circle cx="18.6" cy="12.9" r="0.7"/>
    <circle cx="2.4" cy="15.05" r="0.7"/>
    <circle cx="6" cy="15.05" r="0.7"/>
    <circle cx="9.6" cy="15.05" r="0.7"/>
    <circle cx="13.2" cy="15.05" r="0.7"/>
    <circle cx="16.8" cy="15.05" r="0.7"/>
    <circle cx="20.4" cy="15.05" r="0.7"/>
    <circle cx="4.2" cy="17.2" r="0.7"/>
    <circle cx="7.8" cy="17.2" r="0.7"/>
    <circle cx="11.4" cy="17.2" r="0.7"/>
    <circle cx="15" cy="17.2" r="0.7"/>
    <circle cx="18.6" cy="17.2" r="0.7"/>
    <circle cx="2.4" cy="19.35" r="0.7"/>
    <circle cx="6" cy="19.35" r="0.7"/>
    <circle cx="9.6" cy="19.35" r="0.7"/>
    <circle cx="13.2" cy="19.35" r="0.7"/>
    <circle cx="16.8" cy="19.35" r="0.7"/>
    <circle cx="20.4" cy="19.35" r="0.7"/>
  </g>
</svg>
